<?xml version="1.0" encoding="UTF-8"?>
<svg version="1.1" xmlns="http://www.w3.org/2000/svg" width="312" height="96">
<path d="M0 0 C0.66 0 1.32 0 2 0 C2 7.26 2 14.52 2 22 C4.31 22 6.62 22 9 22 C9 24.31 9 26.62 9 29 C15.93 29 22.86 29 30 29 C24 37 24 37 20 39 C19.67 39.99 19.34 40.98 19 42 C12.07 42 5.14 42 -2 42 C-2 56.19 -2 70.38 -2 85 C-2.99 85.33 -3.98 85.66 -5 86 C-5.28875 86.598125 -5.5775 87.19625 -5.875 87.8125 C-7 90 -7 90 -12 94 C-12 79.15 -12 64.3 -12 49 C-14.31 49 -16.62 49 -19 49 C-19.33 47.02 -19.66 45.04 -20 43 C-26.93 42.67 -33.86 42.34 -41 42 C-38.5 37 -38.5 37 -36 35 C-35.01 35 -34.02 35 -33 35 C-32.67 34.01 -32.34 33.02 -32 32 C-25.4 32 -18.8 32 -12 32 C-12 25.4 -12 18.8 -12 12 C-11.01 11.67 -10.02 11.34 -9 11 C-8.855625 10.401875 -8.71125 9.80375 -8.5625 9.1875 C-7.80076704 6.22520517 -6.29914753 4.95079184 -4 3 C-3.34 3 -2.68 3 -2 3 C-2 10.26 -2 17.52 -2 25 C-0.74982434 23.97488669 -0.74982434 23.97488669 -0.90234375 21.79101562 C-0.91394531 20.83904297 -0.92554688 19.88707031 -0.9375 18.90625 C-0.94910156 17.36130859 -0.94910156 17.36130859 -0.9609375 15.78515625 C-0.97382812 14.70105469 -0.98671875 13.61695313 -1 12.5 C-1.02539081 10.36463266 -1.04646402 8.22920808 -1.0625 6.09375 C-1.07410156 5.14177734 -1.08570313 4.18980469 -1.09765625 3.20898438 C-1 1 -1 1 0 0 Z M-9 20 C-9 23.96 -9 27.92 -9 32 C-8.67 32 -8.34 32 -8 32 C-8 28.04 -8 24.08 -8 20 C-8.33 20 -8.66 20 -9 20 Z M-2 32 C-2 34.31 -2 36.62 -2 39 C-1.67 39 -1.34 39 -1 39 C-1 36.69 -1 34.38 -1 32 C-1.33 32 -1.66 32 -2 32 Z M-13 35 C-13 37.31 -13 39.62 -13 42 C-12.67 42 -12.34 42 -12 42 C-12 39.69 -12 37.38 -12 35 C-12.33 35 -12.66 35 -13 35 Z M-9 35 C-9 36.32 -9 37.64 -9 39 C-7.68 39 -6.36 39 -5 39 C-5 37.68 -5 36.36 -5 35 C-6.32 35 -7.64 35 -9 35 Z M-12 42 C-12 42.33 -12 42.66 -12 43 C-9.69 43 -7.38 43 -5 43 C-5 42.67 -5 42.34 -5 42 C-7.31 42 -9.62 42 -12 42 Z " fill="#242F6B" transform="translate(43,0)"/>
<path d="M0 0 C0.70125 0.09023438 1.4025 0.18046875 2.125 0.2734375 C4 0.625 4 0.625 6 1.625 C5.67 2.945 5.34 4.265 5 5.625 C6.32 5.955 7.64 6.285 9 6.625 C9.12375 6.00625 9.2475 5.3875 9.375 4.75 C10 2.625 10 2.625 12 0.625 C15.625 0.5 15.625 0.5 19 0.625 C19 1.945 19 3.265 19 4.625 C18.01 5.12 18.01 5.12 17 5.625 C17.66 5.955 18.32 6.285 19 6.625 C19 10.255 19 13.885 19 17.625 C12.539801 17.99067164 12.539801 17.99067164 10.0625 16.3125 C9 14.625 9 14.625 9 11.625 C8.34 11.625 7.68 11.625 7 11.625 C6.6596875 12.800625 6.6596875 12.800625 6.3125 14 C5 16.625 5 16.625 2.75 18 C-0.61264424 18.76423733 -2.69415894 18.60971861 -6 17.625 C-8.375 16.125 -8.375 16.125 -10 13.625 C-10.55859786 10.52421187 -10.58096808 7.72349645 -10 4.625 C-7.05992251 0.70489668 -4.79472743 -0.65222395 0 0 Z M-3.8125 5.75 C-5.28399746 7.63853208 -5.28399746 7.63853208 -4.6875 10.3125 C-4.460625 11.075625 -4.23375 11.83875 -4 12.625 C-3.01 12.955 -2.02 13.285 -1 13.625 C-0.34 12.965 0.32 12.305 1 11.625 C0.01 11.625 -0.98 11.625 -2 11.625 C-2 9.975 -2 8.325 -2 6.625 C-0.68 6.295 0.64 5.965 2 5.625 C-0.99014998 4.48232642 -0.99014998 4.48232642 -3.8125 5.75 Z " fill="#252F6B" transform="translate(240,25.375)"/>
<path d="M0 0 C1.74023438 0.08701172 1.74023438 0.08701172 3.515625 0.17578125 C5.27132812 0.24345703 5.27132812 0.24345703 7.0625 0.3125 C8.40054688 0.39951172 8.40054688 0.39951172 9.765625 0.48828125 C10.095625 2.13828125 10.425625 3.78828125 10.765625 5.48828125 C11.425625 3.83828125 12.085625 2.18828125 12.765625 0.48828125 C14.745625 0.48828125 16.725625 0.48828125 18.765625 0.48828125 C18.14919966 3.11556983 17.52294713 5.73981707 16.890625 8.36328125 C16.62958984 9.48283203 16.62958984 9.48283203 16.36328125 10.625 C14.9921875 16.26171875 14.9921875 16.26171875 12.765625 18.48828125 C11.115625 18.15828125 9.465625 17.82828125 7.765625 17.48828125 C6.445625 13.19828125 5.125625 8.90828125 3.765625 4.48828125 C2.775625 4.98328125 2.775625 4.98328125 1.765625 5.48828125 C2.425625 5.81828125 3.085625 6.14828125 3.765625 6.48828125 C3.765625 10.11828125 3.765625 13.74828125 3.765625 17.48828125 C0.515625 17.80078125 0.515625 17.80078125 -3.234375 17.48828125 C-6.43126409 14.78322125 -7.14239705 13.13212691 -7.734375 8.98828125 C-7.00020751 3.84910881 -5.35564678 0.80852156 0 0 Z " fill="#252F6B" transform="translate(181.234375,25.51171875)"/>
<path d="M0 0 C1.98 0 3.96 0 6 0 C6 4.29 6 8.58 6 13 C7.65 13 9.3 13 11 13 C11 8.71 11 4.42 11 0 C12.65 0 14.3 0 16 0 C16.07347656 1.28197266 16.07347656 1.28197266 16.1484375 2.58984375 C16.22320312 3.69457031 16.29796875 4.79929687 16.375 5.9375 C16.44460937 7.03964844 16.51421875 8.14179687 16.5859375 9.27734375 C16.72257812 10.17582031 16.85921875 11.07429688 17 12 C17.66 12.33 18.32 12.66 19 13 C19 8.71 19 4.42 19 0 C20.65 0 22.3 0 24 0 C24.0809723 2.43816585 24.14046972 4.87364384 24.1875 7.3125 C24.21263672 8.00279297 24.23777344 8.69308594 24.26367188 9.40429688 C24.33733201 14.48684645 24.33733201 14.48684645 22.7109375 16.9609375 C19.85332338 18.69638352 17.23943002 18.29449364 14 18 C13.34 17.34 12.68 16.68 12 16 C11.67 16.66 11.34 17.32 11 18 C5.04296875 18.48828125 5.04296875 18.48828125 3 18 C-0.18462539 14.1898232 -0.33439523 11.0350425 -0.1875 6.1875 C-0.16042969 5.02605469 -0.13335937 3.86460938 -0.10546875 2.66796875 C-0.07066406 1.78753906 -0.03585938 0.90710937 0 0 Z " fill="#252F6B" transform="translate(83,54)"/>
<path d="M0 0 C1.134375 0.020625 2.26875 0.04125 3.4375 0.0625 C3.4375 1.3825 3.4375 2.7025 3.4375 4.0625 C2.4475 4.5575 2.4475 4.5575 1.4375 5.0625 C2.0975 5.3925 2.7575 5.7225 3.4375 6.0625 C3.4375 7.7125 3.4375 9.3625 3.4375 11.0625 C4.7575 11.3925 6.0775 11.7225 7.4375 12.0625 C7.4375 8.1025 7.4375 4.1425 7.4375 0.0625 C9.0875 0.0625 10.7375 0.0625 12.4375 0.0625 C12.49133848 2.52112401 12.53109038 4.9785755 12.5625 7.4375 C12.57925781 8.13617188 12.59601563 8.83484375 12.61328125 9.5546875 C12.63094267 11.39147486 12.54053261 13.22851963 12.4375 15.0625 C9.57413629 17.92586371 7.48521654 17.36266187 3.5 17.375 C2.25347656 17.39175781 1.00695312 17.40851562 -0.27734375 17.42578125 C-3.5625 17.0625 -3.5625 17.0625 -5.44921875 15.78515625 C-7.37256497 12.80903105 -7.69759271 9.527628 -7.5625 6.0625 C-4.76385491 0.0835764 -4.76385491 0.0835764 0 0 Z " fill="#252F6B" transform="translate(138.5625,25.9375)"/>
<path d="M0 0 C1.02802734 0.00966797 2.05605469 0.01933594 3.11523438 0.02929688 C4.72301758 0.06700195 4.72301758 0.06700195 6.36328125 0.10546875 C7.44673828 0.11900391 8.53019531 0.13253906 9.64648438 0.14648438 C12.3234153 0.18186232 14.99934963 0.23122686 17.67578125 0.29296875 C18.00578125 2.60296875 18.33578125 4.91296875 18.67578125 7.29296875 C20.98578125 7.62296875 23.29578125 7.95296875 25.67578125 8.29296875 C19.67578125 14.29296875 19.67578125 14.29296875 17.828125 14.390625 C15.77734375 14.35807292 13.7265625 14.32552083 11.67578125 14.29296875 C11.34578125 12.31296875 11.01578125 10.33296875 10.67578125 8.29296875 C3.74578125 7.96296875 -3.18421875 7.63296875 -10.32421875 7.29296875 C-7.52273134 1.68999393 -6.3649225 -0.10549595 0 0 Z " fill="#0C95CC" transform="translate(12.32421875,34.70703125)"/>
<path d="M0 0 C0.66 0.33 1.32 0.66 2 1 C1.67 2.32 1.34 3.64 1 5 C1.99 5.33 2.98 5.66 4 6 C4.33785628 9.63195497 4.22875985 11.58823227 2.4375 14.8125 C-0.75549477 17.67800813 -2.74119188 18 -7 18 C-10.57387602 16.41161066 -11.81089572 15.28365642 -14 12 C-14.46362482 7.82737663 -14.4494094 5.71285629 -12.1875 2.125 C-8.21754093 -1.73153167 -5.1583482 -0.93788149 0 0 Z M-6 4 C-7.77190909 5.35444301 -7.77190909 5.35444301 -9 7 C-8.34 8.65 -7.68 10.3 -7 12 C-5.68 11.67 -4.36 11.34 -3 11 C-3.99 11 -4.98 11 -6 11 C-6 9.35 -6 7.7 -6 6 C-4.68 5.67 -3.36 5.34 -2 5 C-3.83700789 4.22757731 -3.83700789 4.22757731 -6 4 Z " fill="#252F6B" transform="translate(112,26)"/>
<path d="M0 0 C3.68435029 1.04736571 5.06058191 3.38348198 6.9375 6.55078125 C7.81262282 10.75137078 7.13578829 12.21616976 4.9375 15.92578125 C1.41525176 19.00774846 1.41525176 19.00774846 -2.0625 19.23828125 C-5.25095573 18.96653786 -6.2635566 18.41674352 -9.0625 16.55078125 C-11.28175086 13.22190496 -11.82140933 11.41141617 -11.5390625 7.48828125 C-10.08515601 1.57731714 -5.57866821 -0.36979808 0 0 Z M-4.0625 5.55078125 C-4.7225 6.21078125 -5.3825 6.87078125 -6.0625 7.55078125 C-5.74208603 10.15358693 -5.74208603 10.15358693 -5.0625 12.55078125 C-3.0825 13.04578125 -3.0825 13.04578125 -1.0625 13.55078125 C-0.0725 11.90078125 0.9175 10.25078125 1.9375 8.55078125 C0.62548827 6.98828316 0.62548827 6.98828316 -1.0625 5.55078125 C-2.0525 5.55078125 -3.0425 5.55078125 -4.0625 5.55078125 Z " fill="#252F6B" transform="translate(225.0625,53.44921875)"/>
<path d="M0 0 C1.65 0 3.3 0 5 0 C6.8125 2 6.8125 2 8 4 C8.33 2.68 8.66 1.36 9 0 C10.65 0 12.3 0 14 0 C14 5.94 14 11.88 14 18 C12.35 18 10.7 18 9 18 C7.1875 15.5 7.1875 15.5 6 13 C5.67 14.65 5.34 16.3 5 18 C3.35 18 1.7 18 0 18 C0 12.06 0 6.12 0 0 Z " fill="#252F6B" transform="translate(161,54)"/>
<path d="M0 0 C2.4375 0.25 2.4375 0.25 5 1 C5.66 1.99 6.32 2.98 7 4 C7.33 3.01 7.66 2.02 8 1 C9.65 1 11.3 1 13 1 C13 6.61 13 12.22 13 18 C11.68 18.33 10.36 18.66 9 19 C7.68 17.02 6.36 15.04 5 13 C4.67 14.65 4.34 16.3 4 18 C2.35 18 0.7 18 -1 18 C-1.02684312 15.18743719 -1.04676188 12.37512759 -1.0625 9.5625 C-1.07087891 8.76005859 -1.07925781 7.95761719 -1.08789062 7.13085938 C-1.0965143 5.08704779 -1.0522815 3.04316098 -1 1 C-0.67 0.67 -0.34 0.34 0 0 Z " fill="#252F6B" transform="translate(215,25)"/>
<path d="M0 0 C9 0 9 0 12 1.875 C14.42595786 4.45258022 14.95664228 5.33518168 15.1875 8.875 C15.00235491 11.96075154 14.77840309 13.51023567 13 16 C9 18 9 18 0 18 C0 12.06 0 6.12 0 0 Z M6 5 C6 7.64 6 10.28 6 13 C7.32 12.01 8.64 11.02 10 10 C9.73323796 8.01508358 9.73323796 8.01508358 9 6 C8.01 5.67 7.02 5.34 6 5 Z " fill="#252F6B" transform="translate(198,54)"/>
<path d="M0 0 C1.65 0 3.3 0 5 0 C5 3.96 5 7.92 5 12 C6.65 12 8.3 12 10 12 C10 8.04 10 4.08 10 0 C11.98 0 13.96 0 16 0 C16 5.61 16 11.22 16 17 C5.2578125 17.1953125 5.2578125 17.1953125 2 17 C0 15 0 15 -0.1953125 11.5234375 C-0.18201493 10.14049032 -0.15816232 8.75761346 -0.125 7.375 C-0.11597656 6.66859375 -0.10695313 5.9621875 -0.09765625 5.234375 C-0.07407603 3.48943902 -0.03820461 1.74467705 0 0 Z " fill="#252F6B" transform="translate(261,26)"/>
<path d="M0 0 C3.5 0.4375 3.5 0.4375 5.20703125 1.484375 C7.20935485 4.509033 6.81472152 7.63130127 6.6875 11.125 C6.67396484 11.82689453 6.66042969 12.52878906 6.64648438 13.25195312 C6.61120182 14.98079829 6.55739583 16.70924765 6.5 18.4375 C4.85 18.4375 3.2 18.4375 1.5 18.4375 C1.17 16.4575 0.84 14.4775 0.5 12.4375 C0.17 14.4175 -0.16 16.3975 -0.5 18.4375 C-2.48 18.4375 -4.46 18.4375 -6.5 18.4375 C-6.58119503 16.18809705 -6.63927819 13.93785129 -6.6875 11.6875 C-6.72230469 10.43453125 -6.75710937 9.1815625 -6.79296875 7.890625 C-6.35099664 2.68124707 -5.28228875 0.66028609 0 0 Z " fill="#252F6B" transform="translate(260.5,53.5625)"/>
<path d="M0 0 C2.72562684 2.72562684 2.49474397 4.63713785 2.8125 8.4375 C2.92207031 9.59121094 3.03164062 10.74492188 3.14453125 11.93359375 C3 15 3 15 1.8359375 16.8984375 C-0.62486712 18.37492027 -2.33808266 18.29851626 -5.1875 18.1875 C-6.53908203 18.14689453 -6.53908203 18.14689453 -7.91796875 18.10546875 C-8.60503906 18.07066406 -9.29210937 18.03585938 -10 18 C-10.08074203 15.37438891 -10.1403623 12.75124324 -10.1875 10.125 C-10.21263672 9.37863281 -10.23777344 8.63226563 -10.26367188 7.86328125 C-10.29296875 5.6953125 -10.29296875 5.6953125 -10 2 C-6.32653229 -0.44897847 -4.33643601 -0.31537716 0 0 Z M-5 11 C-5 11.66 -5 12.32 -5 13 C-4.34 13 -3.68 13 -3 13 C-3 12.34 -3 11.68 -3 11 C-3.66 11 -4.32 11 -5 11 Z " fill="#252F6B" transform="translate(250,54)"/>
<path d="M0 0 C3.5 0.4375 3.5 0.4375 5.20703125 1.484375 C7.20935485 4.509033 6.81472152 7.63130127 6.6875 11.125 C6.67396484 11.82689453 6.66042969 12.52878906 6.64648438 13.25195312 C6.61120182 14.98079829 6.55739583 16.70924765 6.5 18.4375 C4.85 18.4375 3.2 18.4375 1.5 18.4375 C1.5 16.4575 1.5 14.4775 1.5 12.4375 C0.84 12.4375 0.18 12.4375 -0.5 12.4375 C-0.5 14.4175 -0.5 16.3975 -0.5 18.4375 C-2.48 18.4375 -4.46 18.4375 -6.5 18.4375 C-6.58119503 16.18809705 -6.63927819 13.93785129 -6.6875 11.6875 C-6.72230469 10.43453125 -6.75710937 9.1815625 -6.79296875 7.890625 C-6.35099664 2.68124707 -5.28228875 0.66028609 0 0 Z M-0.5 5.4375 C-0.5 6.0975 -0.5 6.7575 -0.5 7.4375 C0.16 7.4375 0.82 7.4375 1.5 7.4375 C1.5 6.7775 1.5 6.1175 1.5 5.4375 C0.84 5.4375 0.18 5.4375 -0.5 5.4375 Z " fill="#252F6B" transform="translate(152.5,53.5625)"/>
<path d="M0 0 C1.70703125 1.04296875 1.70703125 1.04296875 3 3 C3.2172101 5.64996326 3.28351554 8.05076558 3.1875 10.6875 C3.17396484 11.38939453 3.16042969 12.09128906 3.14648438 12.81445312 C3.11120182 14.54329829 3.05739583 16.27174765 3 18 C1.35 18 -0.3 18 -2 18 C-2 16.02 -2 14.04 -2 12 C-2.99 12 -3.98 12 -5 12 C-5 13.98 -5 15.96 -5 18 C-6.65 18 -8.3 18 -10 18 C-10.0809723 15.56183415 -10.14046972 13.12635616 -10.1875 10.6875 C-10.21263672 9.99720703 -10.23777344 9.30691406 -10.26367188 8.59570312 C-10.33736845 3.51063926 -10.33736845 3.51063926 -8.70703125 1.04296875 C-5.81244293 -0.72557834 -3.28417924 -0.35187635 0 0 Z M-4 5 C-4.33 5.66 -4.66 6.32 -5 7 C-4.01 6.67 -3.02 6.34 -2 6 C-2.66 5.67 -3.32 5.34 -4 5 Z " fill="#252F6B" transform="translate(279,54)"/>
<path d="M0 0 C1.70703125 1.04296875 1.70703125 1.04296875 3 3 C3.2172101 5.64996326 3.28351554 8.05076558 3.1875 10.6875 C3.17396484 11.38939453 3.16042969 12.09128906 3.14648438 12.81445312 C3.11120182 14.54329829 3.05739583 16.27174765 3 18 C1.35 18 -0.3 18 -2 18 C-2 16.02 -2 14.04 -2 12 C-2.99 12 -3.98 12 -5 12 C-5 13.98 -5 15.96 -5 18 C-6.65 18 -8.3 18 -10 18 C-10.0809723 15.56183415 -10.14046972 13.12635616 -10.1875 10.6875 C-10.21263672 9.99720703 -10.23777344 9.30691406 -10.26367188 8.59570312 C-10.33736845 3.51063926 -10.33736845 3.51063926 -8.70703125 1.04296875 C-5.81244293 -0.72557834 -3.28417924 -0.35187635 0 0 Z M-5 5 C-5 5.66 -5 6.32 -5 7 C-4.01 6.67 -3.02 6.34 -2 6 C-2.99 5.67 -3.98 5.34 -5 5 Z " fill="#252F6B" transform="translate(187,54)"/>
<path d="M0 0 C7.59 0 15.18 0 23 0 C23 2.31 23 4.62 23 7 C25.31 7 27.62 7 30 7 C30 22.18 30 37.36 30 53 C29.34 53 28.68 53 28 53 C28 38.81 28 24.62 28 10 C25.36 10 22.72 10 20 10 C20 7.69 20 5.38 20 3 C13.4 3 6.8 3 0 3 C0 2.01 0 1.02 0 0 Z " fill="#252F6B" transform="translate(0,43)"/>
<path d="M0 0 C3.375 0.9375 3.375 0.9375 5.375 3.9375 C5.5703125 7.29296875 5.5703125 7.29296875 5.5 11.125 C5.48195312 12.39730469 5.46390625 13.66960938 5.4453125 14.98046875 C5.41050781 16.44419922 5.41050781 16.44419922 5.375 17.9375 C3.725 17.9375 2.075 17.9375 0.375 17.9375 C0.375 15.9575 0.375 13.9775 0.375 11.9375 C-0.615 11.9375 -1.605 11.9375 -2.625 11.9375 C-2.625 13.9175 -2.625 15.8975 -2.625 17.9375 C-4.275 17.9375 -5.925 17.9375 -7.625 17.9375 C-7.73323773 15.68856046 -7.81069645 13.43812425 -7.875 11.1875 C-7.92140625 9.93453125 -7.9678125 8.6815625 -8.015625 7.390625 C-7.625 3.9375 -7.625 3.9375 -5.8359375 1.48046875 C-3.625 -0.0625 -3.625 -0.0625 0 0 Z M-1.625 4.9375 C-0.625 6.9375 -0.625 6.9375 -0.625 6.9375 Z " fill="#252F6B" transform="translate(124.625,25.0625)"/>
<path d="M0 0 C3.375 0.875 3.375 0.875 5.375 2.875 C5.51997985 5.45564129 5.56177545 7.92443884 5.5 10.5 C5.49097656 11.20640625 5.48195312 11.9128125 5.47265625 12.640625 C5.44907603 14.38556098 5.41320461 16.13032295 5.375 17.875 C3.725 17.875 2.075 17.875 0.375 17.875 C0.375 15.895 0.375 13.915 0.375 11.875 C-0.615 11.875 -1.605 11.875 -2.625 11.875 C-2.625 13.855 -2.625 15.835 -2.625 17.875 C-4.275 17.875 -5.925 17.875 -7.625 17.875 C-7.73323773 15.62606046 -7.81069645 13.37562425 -7.875 11.125 C-7.92140625 9.87203125 -7.9678125 8.6190625 -8.015625 7.328125 C-7.625 3.875 -7.625 3.875 -5.8359375 1.4140625 C-3.625 -0.125 -3.625 -0.125 0 0 Z M-1.625 4.875 C-1.955 5.865 -2.285 6.855 -2.625 7.875 C-1.635 7.875 -0.645 7.875 0.375 7.875 C0.045 6.885 -0.285 5.895 -0.625 4.875 C-0.955 4.875 -1.285 4.875 -1.625 4.875 Z " fill="#252F6B" transform="translate(160.625,25.125)"/>
<path d="M0 0 C0.70125 0.00515625 1.4025 0.0103125 2.125 0.015625 C2.82625 0.01046875 3.5275 0.0053125 4.25 0 C6.125 0.265625 6.125 0.265625 8.125 2.265625 C8.27007695 5.01048093 8.31152423 7.65043043 8.25 10.390625 C8.24097656 11.14472656 8.23195312 11.89882812 8.22265625 12.67578125 C8.1990687 14.53919754 8.16319719 16.40245093 8.125 18.265625 C6.475 18.265625 4.825 18.265625 3.125 18.265625 C2.795 16.285625 2.465 14.305625 2.125 12.265625 C1.795 14.245625 1.465 16.225625 1.125 18.265625 C-0.525 18.265625 -2.175 18.265625 -3.875 18.265625 C-3.92882106 15.64035311 -3.96858313 13.01617787 -4 10.390625 C-4.01675781 9.64425781 -4.03351563 8.89789063 -4.05078125 8.12890625 C-4.0683959 6.17368039 -3.97820189 4.21820479 -3.875 2.265625 C-1.875 0.265625 -1.875 0.265625 0 0 Z M1.125 5.265625 C1.455 5.925625 1.785 6.585625 2.125 7.265625 C2.455 6.605625 2.785 5.945625 3.125 5.265625 C2.465 5.265625 1.805 5.265625 1.125 5.265625 Z " fill="#252F6B" transform="translate(135.875,53.734375)"/>
<path d="M0 0 C3.375 0.9375 3.375 0.9375 5.375 3.9375 C5.5703125 7.29296875 5.5703125 7.29296875 5.5 11.125 C5.48195313 12.39730469 5.46390625 13.66960938 5.4453125 14.98046875 C5.41050781 16.44419922 5.41050781 16.44419922 5.375 17.9375 C3.725 17.9375 2.075 17.9375 0.375 17.9375 C0.375 15.9575 0.375 13.9775 0.375 11.9375 C-0.615 11.9375 -1.605 11.9375 -2.625 11.9375 C-2.625 13.9175 -2.625 15.8975 -2.625 17.9375 C-4.275 17.9375 -5.925 17.9375 -7.625 17.9375 C-7.73323773 15.68856046 -7.81069645 13.43812425 -7.875 11.1875 C-7.92140625 9.93453125 -7.9678125 8.6815625 -8.015625 7.390625 C-7.625 3.9375 -7.625 3.9375 -5.8359375 1.48046875 C-3.625 -0.0625 -3.625 -0.0625 0 0 Z M-1.625 4.9375 C-1.955 5.9275 -2.285 6.9175 -2.625 7.9375 C-1.635 7.9375 -0.645 7.9375 0.375 7.9375 C0.045 6.9475 -0.285 5.9575 -0.625 4.9375 C-0.955 4.9375 -1.285 4.9375 -1.625 4.9375 Z " fill="#252F6B" transform="translate(297.625,25.0625)"/>
<path d="M0 0 C1.67578125 1.04296875 1.67578125 1.04296875 3 3 C3.2172101 5.64996326 3.28351554 8.05076558 3.1875 10.6875 C3.17396484 11.38939453 3.16042969 12.09128906 3.14648438 12.81445312 C3.11120182 14.54329829 3.05739583 16.27174765 3 18 C1.35 18 -0.3 18 -2 18 C-2 16.02 -2 14.04 -2 12 C-2.66 12 -3.32 12 -4 12 C-4 13.98 -4 15.96 -4 18 C-5.65 18 -7.3 18 -9 18 C-9.0809723 15.56183415 -9.14046972 13.12635616 -9.1875 10.6875 C-9.21263672 9.99720703 -9.23777344 9.30691406 -9.26367188 8.59570312 C-9.33753944 3.49884147 -9.33753944 3.49884147 -7.67578125 1.04296875 C-5.0446616 -0.59458124 -3.01736078 -0.3771701 0 0 Z M-4 5 C-4 5.99 -4 6.98 -4 8 C-3.34 8 -2.68 8 -2 8 C-2 7.01 -2 6.02 -2 5 C-2.66 5 -3.32 5 -4 5 Z " fill="#252F6B" transform="translate(209,25)"/>
<path d="M0 0 C0 1.65 0 3.3 0 5 C-0.99 5.33 -1.98 5.66 -3 6 C-2.154375 6.721875 -1.30875 7.44375 -0.4375 8.1875 C2 11 2 11 2 13.6875 C1 16 1 16 -2 18 C-4.04296875 18.1953125 -4.04296875 18.1953125 -6.1875 18.125 C-7.445625 18.08375 -8.70375 18.0425 -10 18 C-10 16.35 -10 14.7 -10 13 C-8.35 12.67 -6.7 12.34 -5 12 C-6.2375 11.195625 -6.2375 11.195625 -7.5 10.375 C-10 8 -10 8 -10.5 4.875 C-10.335 3.92625 -10.17 2.9775 -10 2 C-6.3558226 -0.4294516 -4.28758728 -0.16179575 0 0 Z " fill="#252F6B" transform="translate(293,54)"/>
<path d="M0 0 C0 1.65 0 3.3 0 5 C-1.32 5.33 -2.64 5.66 -4 6 C-2.68 6.33 -1.36 6.66 0 7 C0 8.32 0 9.64 0 11 C-1.32 11.33 -2.64 11.66 -4 12 C-2.68 12.33 -1.36 12.66 0 13 C0 14.65 0 16.3 0 18 C-3.09167049 18.21079572 -5.42018118 18.23506168 -8.3125 17.0625 C-11.01013821 13.76538663 -11.20526746 10.17865896 -11 6 C-8.43210993 0.13053699 -6.10676186 -0.13275569 0 0 Z " fill="#252F6B" transform="translate(130,54)"/>
<path d="M0 0 C0.17479953 3.56187657 0.28101143 7.12264773 0.375 10.6875 C0.42527344 11.69490234 0.47554687 12.70230469 0.52734375 13.74023438 C0.67307052 21.09943646 0.67307052 21.09943646 -1.36230469 23.82275391 C-3.0234375 25.20703125 -3.0234375 25.20703125 -6 27 C-8.41281427 7.52514193 -8.41281427 7.52514193 -5.953125 3.12890625 C-4.08988865 1.19442852 -2.75167461 0 0 0 Z " fill="#0C96CD" transform="translate(41,3)"/>
<path d="M0 0 C0 1.65 0 3.3 0 5 C-1.65 5.33 -3.3 5.66 -5 6 C-5 7.65 -5 9.3 -5 11 C-3.35 11.33 -1.7 11.66 0 12 C0 13.65 0 15.3 0 17 C-6.19230769 17.47633136 -6.19230769 17.47633136 -9.4375 15.5625 C-11.75587974 11.76035723 -11.77201236 8.33759522 -11 4 C-8.16991495 -0.64133948 -5.1404796 -0.39542151 0 0 Z " fill="#252F6B" transform="translate(289,26)"/>
<path d="M0 0 C3.63 0 7.26 0 11 0 C11 1.65 11 3.3 11 5 C10.01 5 9.02 5 8 5 C8 9.29 8 13.58 8 18 C6.35 18 4.7 18 3 18 C3 13.71 3 9.42 3 5 C2.01 5 1.02 5 0 5 C0 3.35 0 1.7 0 0 Z " fill="#252F6B" transform="translate(108,54)"/>
<path d="M0 0 C1.65 0 3.3 0 5 0 C5.33 3.96 5.66 7.92 6 12 C7.32 12.33 8.64 12.66 10 13 C10 14.65 10 16.3 10 18 C3.60344828 18.36206897 3.60344828 18.36206897 1.28125 16.96875 C-0.69717729 13.92872758 -0.31481877 10.80886916 -0.1875 7.3125 C-0.17396484 6.61060547 -0.16042969 5.90871094 -0.14648438 5.18554688 C-0.11120182 3.45670171 -0.05739583 1.72825235 0 0 Z " fill="#252F6B" transform="translate(302,54)"/>
<path d="M0 0 C1.65 0 3.3 0 5 0 C5 5.94 5 11.88 5 18 C3.35 18 1.7 18 0 18 C0 12.06 0 6.12 0 0 Z " fill="#252F6B" transform="translate(296,54)"/>
<path d="M0 0 C0.33 1.65 0.66 3.3 1 5 C3.31 5.33 5.62 5.66 8 6 C2 12 2 12 0.15234375 12.09765625 C-1.8984375 12.06510417 -3.94921875 12.03255208 -6 12 C-6.4386423 6.73629243 -6.4386423 6.73629243 -6 4 C-2.1 0 -2.1 0 0 0 Z " fill="#0D92C9" transform="translate(30,37)"/>
<path d="M0 0 C1.65 0 3.3 0 5 0 C5 5.61 5 11.22 5 17 C3.35 17 1.7 17 0 17 C0 11.39 0 5.78 0 0 Z " fill="#252F6B" transform="translate(92,26)"/>
<path d="M0 0 C0.61658031 5.10880829 0.61658031 5.10880829 0 8 C-2.03926899 10.44303403 -4.36846614 12.2277425 -7 14 C-7.72058426 7.03435218 -7.72058426 7.03435218 -5.69921875 4.1328125 C-1.55651914 0 -1.55651914 0 0 0 Z " fill="#0D8FC6" transform="translate(49,24)"/>
<path d="M0 0 C0.375 2.6875 0.375 2.6875 0 6 C-1.823983 8.06398076 -3.72763839 9.39041053 -6 11 C-6.3125 7.75 -6.3125 7.75 -6 4 C-2 0 -2 0 0 0 Z " fill="#213C78" transform="translate(30,37)"/>
</svg>
