<svg width="1080" height="1080" viewBox="0 0 1080 1080" fill="none" xmlns="http://www.w3.org/2000/svg">
<rect width="1080" height="1080" rx="128" fill="#873BEC"/>
<path d="M684.824 305.333H394.869C371.145 305.333 351.913 324.436 351.913 348V554.383L266 639.716V348C266 277.308 323.697 220 394.869 220H684.824C749.205 220 802.559 266.893 812.155 328.168L727.78 411.974V348C727.78 324.436 708.548 305.333 684.824 305.333Z" fill="white"/>
<path d="M268.619 754.634C279.351 814.564 331.448 860 394.869 860H684.824C755.996 860 813.692 802.692 813.692 732L813.43 447.642L727.78 532.195V732C727.78 755.564 708.548 774.667 684.824 774.667H394.869C371.145 774.667 351.913 755.564 351.913 732L352.436 671.382L268.619 754.634Z" fill="white"/>
<path d="M723.065 303.252L352.436 671.382L317.076 735.122L359.639 777.398L780.034 359.837L723.065 303.252Z" fill="white"/>
</svg>
