<svg width="81" height="24" viewBox="0 0 81 24" fill="none" xmlns="http://www.w3.org/2000/svg">
<path fill-rule="evenodd" clip-rule="evenodd" d="M15.7858 3.2H4.85716C3.96298 3.2 3.23811 3.91634 3.23811 4.8V12.5394L0 15.7394V4.8C0 2.14903 2.17463 0 4.85716 0H15.7858C18.2123 0 20.2233 1.75849 20.585 4.05629L17.4048 7.19903V7.19024L3.92682 20.5096C4.19004 20.6926 4.51091 20.8 4.85716 20.8H15.7858C16.68 20.8 17.4048 20.0837 17.4048 19.2V11.7073L20.6331 8.53659L20.6429 19.2C20.6429 21.851 18.4683 24 15.7858 24H4.85716C2.4668 24 0.503222 22.2962 0.0987228 20.0488L3.25785 16.9268L16.7951 3.54889C16.5183 3.33053 16.1675 3.2 15.7858 3.2ZM71.254 15.9061V17.9962H81V15.9061H74.0865L81 8.09398V6.00389H71.254V8.09398H78.1675L71.254 15.9061ZM64.213 18.2189C63.398 18.2189 62.6318 18.059 61.9143 17.7392C61.1968 17.4137 60.5655 16.9654 60.0202 16.3944C59.4749 15.8233 59.0473 15.1637 58.7374 14.4156C58.4274 13.6618 58.2725 12.8566 58.2725 12C58.2725 11.1434 58.4274 10.3411 58.7374 9.59301C59.0473 8.83921 59.4749 8.17678 60.0202 7.60572C60.5655 7.03466 61.1968 6.58923 61.9143 6.26944C62.6318 5.94393 63.398 5.78118 64.213 5.78118C65.0338 5.78118 65.8029 5.94393 66.5204 6.26944C67.2379 6.58923 67.8692 7.03466 68.4145 7.60572C68.9598 8.17678 69.3845 8.83921 69.6887 9.59301C69.9986 10.3411 70.1536 11.1434 70.1536 12C70.1536 12.8566 69.9986 13.6618 69.6887 14.4156C69.3845 15.1637 68.9598 15.8233 68.4145 16.3944C67.8692 16.9654 67.2379 17.4137 66.5204 17.7392C65.8029 18.059 65.0338 18.2189 64.213 18.2189ZM64.213 16.1288C64.7411 16.1288 65.2376 16.0203 65.7025 15.8033C66.1674 15.5863 66.5749 15.2893 66.925 14.9124C67.2809 14.5298 67.5564 14.0901 67.7516 13.5933C67.9524 13.0965 68.0529 12.5654 68.0529 12C68.0529 11.4347 67.9524 10.9036 67.7516 10.4068C67.5507 9.90424 67.2723 9.46452 66.9164 9.08762C66.5663 8.71072 66.1588 8.41377 65.6939 8.19677C65.2347 7.97977 64.7411 7.87126 64.213 7.87126C63.685 7.87126 63.1885 7.97977 62.7236 8.19677C62.2587 8.41377 61.8483 8.71358 61.4924 9.09619C61.1423 9.47309 60.8668 9.90995 60.6659 10.4068C60.4708 10.9036 60.3732 11.4347 60.3732 12C60.3732 12.5711 60.4736 13.105 60.6745 13.6019C60.8754 14.0987 61.1509 14.5384 61.501 14.921C61.8569 15.2979 62.2644 15.5949 62.7236 15.8119C63.1885 16.0232 63.685 16.1288 64.213 16.1288ZM48.7125 6.00389V17.9962H50.8133V13.225H52.165L54.9544 17.9962H57.3737L54.4895 13.0365C54.9487 12.8652 55.3533 12.6139 55.7035 12.2827C56.0593 11.9515 56.3348 11.5603 56.53 11.1092C56.7309 10.6523 56.8313 10.1527 56.8313 9.61014C56.8313 8.94771 56.6763 8.34524 56.3664 7.80274C56.0565 7.25452 55.6375 6.81766 55.1094 6.49215C54.5814 6.16665 53.9902 6.00389 53.3358 6.00389H48.7125ZM53.0948 11.1349H50.8133V7.80274H53.0948C53.3932 7.80274 53.6659 7.87697 53.9127 8.02545C54.1595 8.17393 54.3575 8.3738 54.5067 8.62506C54.656 8.87633 54.7306 9.15901 54.7306 9.47309C54.7306 9.78146 54.656 10.0613 54.5067 10.3125C54.3575 10.5638 54.1595 10.7637 53.9127 10.9122C53.6659 11.0606 53.3932 11.1349 53.0948 11.1349ZM39.2118 17.9962V6.00389H46.7709V8.09398H41.3125V10.5267H45.6431V12.6168H41.3125V15.9061H46.7709V17.9962H39.2118ZM27.7524 15.9061V17.9962H37.4984V15.9061H30.5849L37.4984 8.09398V6.00389H27.7524V8.09398H34.6658L27.7524 15.9061Z" fill="#873BEC"/>
</svg>
